<svg width="1436" height="204" viewBox="0 0 1436 204" fill="none" xmlns="http://www.w3.org/2000/svg">
<path d="M52.0723 119.08C52.0723 131.773 55.7123 141.853 62.9924 149.32C70.459 156.787 79.699 160.52 90.7123 160.52C101.726 160.52 110.592 156.88 117.312 149.6C124.219 142.133 127.672 131.96 127.672 119.08V3.71999H178.912V119.08C178.912 136.253 175.272 151.187 167.992 163.88C160.899 176.573 150.726 186.373 137.472 193.28C124.219 200.187 108.539 203.64 90.4323 203.64C72.3257 203.64 56.5523 200.187 43.1123 193.28C29.6723 186.373 19.219 176.573 11.7523 163.88C4.47234 151.187 0.832344 136.253 0.832344 119.08V3.71999H52.0723V119.08ZM213.919 3.71999H258.999L361.759 140.92L348.319 145.4V3.71999H395.639V200H350.839L248.079 63.36L261.799 58.88V200H213.919V3.71999ZM518.596 3.71999C534.089 3.71999 548.183 6.14666 560.876 11C573.756 15.6667 584.769 22.3867 593.916 31.16C603.249 39.7467 610.436 50.0133 615.476 61.96C620.516 73.9067 623.036 87.16 623.036 101.72C623.036 116.467 620.423 129.813 615.196 141.76C610.156 153.707 602.969 164.067 593.636 172.84C584.303 181.613 573.103 188.333 560.036 193C546.969 197.667 532.503 200 516.636 200H434.036V3.71999H518.596ZM519.996 159.12C527.463 159.12 534.276 157.813 540.436 155.2C546.596 152.4 551.916 148.48 556.396 143.44C561.063 138.4 564.609 132.427 567.036 125.52C569.463 118.427 570.676 110.68 570.676 102.28C570.676 93.6933 569.369 85.9467 566.756 79.04C564.143 71.9467 560.409 65.88 555.556 60.84C550.889 55.6133 545.289 51.6933 538.756 49.08C532.409 46.28 525.316 44.88 517.476 44.88H485.276V159.12H519.996ZM736.611 3.71999C762.744 3.71999 782.904 9.78666 797.091 21.92C811.278 33.8667 818.371 50.76 818.371 72.6C818.371 95.56 811.278 113.48 797.091 126.36C782.904 139.053 762.744 145.4 736.611 145.4H699.651V200H648.411V3.71999H736.611ZM736.611 105.08C747.251 105.08 755.371 102.467 760.971 97.24C766.758 92.0133 769.651 84.2667 769.651 74C769.651 64.1067 766.758 56.64 760.971 51.6C755.371 46.56 747.251 44.04 736.611 44.04H699.651V105.08H736.611ZM727.651 126.64H777.491L824.251 200H766.291L727.651 126.64ZM992.988 69.52C986.642 61.4933 979.082 55.1467 970.308 50.48C961.535 45.8133 952.855 43.48 944.268 43.48C936.802 43.48 929.802 44.9733 923.268 47.96C916.735 50.76 911.042 54.7733 906.188 60C901.335 65.04 897.602 71.1067 894.988 78.2C892.375 85.1067 891.068 92.6667 891.068 100.88C891.068 109.093 892.375 116.747 894.988 123.84C897.602 130.747 901.335 136.813 906.188 142.04C911.042 147.267 916.735 151.373 923.268 154.36C929.802 157.16 936.802 158.56 944.268 158.56C952.482 158.56 960.882 156.507 969.468 152.4C978.242 148.107 986.082 142.413 992.988 135.32L1022.95 166.96C1015.85 174.427 1007.83 180.96 998.868 186.56C989.908 191.973 980.482 196.173 970.588 199.16C960.882 202.147 951.175 203.64 941.468 203.64C926.722 203.64 913.095 201.12 900.588 196.08C888.082 190.853 877.162 183.667 867.828 174.52C858.682 165.187 851.495 154.36 846.268 142.04C841.042 129.533 838.428 116 838.428 101.44C838.428 87.0667 841.042 73.8133 846.268 61.68C851.495 49.36 858.868 38.6267 868.388 29.48C877.908 20.3333 889.015 13.24 901.708 8.19998C914.588 3.15999 928.495 0.639997 943.428 0.639997C953.135 0.639997 962.842 2.04 972.548 4.83999C982.255 7.45333 991.402 11.28 999.988 16.32C1008.57 21.36 1016.13 27.3333 1022.67 34.24L992.988 69.52ZM1106.55 3.71999H1159.19L1241.51 200H1186.91L1131.47 54.96L1074.91 200H1022.27L1106.55 3.71999ZM1072.67 126.08H1187.19V164.72H1072.67V126.08ZM1347.47 3.71999C1373.6 3.71999 1393.76 9.78666 1407.95 21.92C1422.14 33.8667 1429.23 50.76 1429.23 72.6C1429.23 95.56 1422.14 113.48 1407.95 126.36C1393.76 139.053 1373.6 145.4 1347.47 145.4H1310.51V200H1259.27V3.71999H1347.47ZM1347.47 105.08C1358.11 105.08 1366.23 102.467 1371.83 97.24C1377.62 92.0133 1380.51 84.2667 1380.51 74C1380.51 64.1067 1377.62 56.64 1371.83 51.6C1366.23 46.56 1358.11 44.04 1347.47 44.04H1310.51V105.08H1347.47ZM1338.51 126.64H1388.35L1435.11 200H1377.15L1338.51 126.64Z" fill="#F6F6F6"/>
</svg>
