<svg width="564" height="206" viewBox="0 0 564 206" fill="none" xmlns="http://www.w3.org/2000/svg">
<path d="M80.2649 0H112.267V85.5771C112.267 95.4671 109.914 104.083 105.206 111.425C100.499 118.724 93.9339 124.382 85.5123 128.398C77.0906 132.371 67.3085 134.358 56.166 134.358C44.894 134.358 35.0471 132.371 26.6254 128.398C18.2038 124.382 11.6608 118.724 6.99646 111.425C2.33215 104.083 0 95.4671 0 85.5771V0H32.0671V82.7914C32.0671 87.3694 33.0604 91.4506 35.0471 95.0352C37.0769 98.6198 39.9057 101.427 43.5335 103.457C47.1613 105.487 51.3722 106.502 56.166 106.502C60.9599 106.502 65.1491 105.487 68.7337 103.457C72.3615 101.427 75.1903 98.6198 77.2202 95.0352C79.25 91.4506 80.2649 87.3694 80.2649 82.7914V0Z" fill="white"/>
<path d="M245.281 0V132.674H218.073L165.275 56.1012H164.433V132.674H132.366V0H159.963L212.177 76.4428H213.279V0H245.281Z" fill="white"/>
<path d="M314.484 132.674H265.444V0H314.42C327.937 0 339.577 2.65606 349.337 7.96819C359.141 13.2371 366.699 20.8382 372.011 30.7715C377.323 40.6615 379.979 52.495 379.979 66.272C379.979 80.0922 377.323 91.9689 372.011 101.902C366.742 111.835 359.206 119.458 349.402 124.77C339.598 130.039 327.959 132.674 314.484 132.674ZM297.511 105.336H313.253C320.682 105.336 326.966 104.083 332.105 101.578C337.288 99.0301 341.196 94.9057 343.831 89.2049C346.508 83.4608 347.847 75.8166 347.847 66.272C347.847 56.7275 346.508 49.1264 343.831 43.4687C341.153 37.7679 337.201 33.6651 331.976 31.1602C326.793 28.6121 320.401 27.338 312.8 27.338H297.511V105.336Z" fill="white"/>
<path d="M398.701 132.674V0H453.507C463.44 0 472.013 1.7923 479.225 5.37691C486.481 8.91833 492.073 14.0145 496.004 20.6655C499.934 27.2732 501.899 35.1119 501.899 44.1813C501.899 53.3804 499.891 61.1974 495.874 67.6324C491.858 74.0243 486.157 78.9045 478.772 82.2732C471.386 85.5987 462.641 87.2614 452.535 87.2614H417.876V61.9964H446.575C451.412 61.9964 455.45 61.3702 458.689 60.1177C461.971 58.8221 464.455 56.8786 466.139 54.2873C467.823 51.6529 468.666 48.2842 468.666 44.1813C468.666 40.0785 467.823 36.6882 466.139 34.0106C464.455 31.2897 461.971 29.2599 458.689 27.9211C455.407 26.539 451.369 25.848 446.575 25.848H430.768V132.674H398.701ZM473.395 72.0376L506.434 132.674H471.451L439.06 72.0376H473.395Z" fill="white"/>
<path d="M301.386 77.5002C279.287 89.801 262.903 106.862 258.386 112.943L274.022 136.583C285.072 120.529 308.162 104.777 315.459 100.434L301.386 77.5002Z" fill="#0A0A0A"/>
<path d="M386.148 51.9813C360.876 53.0008 338.561 60.8462 331.788 64.2383L339.493 90.6086C356.593 81.2587 379.902 79.3845 388.374 78.7963L386.148 51.9813Z" fill="#0A0A0A"/>
<path d="M398.072 53.2637C400.852 53.9586 408.497 57.1728 415.794 64.9911L417.879 67.0759C417.879 67.0759 419.183 68.3145 419.963 69.1608C420.911 70.1877 422 71.6263 422.828 72.7708C423.689 73.9619 424.074 75.4403 423.778 76.88C422.189 84.5968 416.008 97.175 398.072 105.907V53.2637Z" fill="#0A0A0A"/>
<path d="M421.857 112.54C427.622 113.631 430.45 115.129 431.43 115.648L430.629 133.716L399.636 132.901C401.922 128.719 410.817 119.591 412.983 117.574C416.564 113.981 418.505 112.849 419.697 112.499C420.397 112.294 421.141 112.404 421.857 112.54Z" fill="#0A0A0A"/>
<path d="M497.488 113.431L485.319 137.771L512.893 134.228L497.488 113.431Z" fill="#0A0A0A"/>
<path fill-rule="evenodd" clip-rule="evenodd" d="M381.077 56.1271C372.546 57.0825 364.783 58.18 363.733 58.5789C363.099 58.8194 360.592 59.4083 358.16 59.8878C349.339 61.6269 334.888 66.2452 324.816 70.5438C322.953 71.3389 320.608 72.3188 319.605 72.7212C314.788 74.6534 301.316 81.8079 296.385 85.0527C295.828 85.4187 294.704 86.1216 293.888 86.6147C293.124 87.0758 292.469 87.5023 291.93 87.8874L287.563 90.9706C282.032 94.4134 268.444 107.006 260.888 116.086C257.424 120.248 249.252 131.556 249.252 132.189C249.252 132.328 248.314 133.984 247.168 135.87C246.021 137.756 245.083 139.413 245.083 139.552C245.083 139.693 244.469 141.147 243.719 142.786C238.32 154.58 236.358 165.199 238.062 173.421C239.317 179.483 242.534 185.892 246.879 190.987C247.313 191.496 247.819 192.018 248.358 192.527C253.236 197.959 265.23 205.4 284.058 202.779C294.474 201.328 300.687 199.946 305.888 198.089C308.777 197.199 314.845 194.322 323.514 189.708C328.956 186.812 333.015 184.516 335.404 182.998L342.92 178.818L343.238 178.615C343.76 178.308 344.253 177.995 344.665 177.704L351.449 173.377L351.414 173.389C354.624 171.4 358.493 168.906 360.134 167.71C360.361 167.545 360.554 167.359 360.701 167.174C362.852 165.731 364.743 164.401 366.247 163.252L365.986 163.368C366.93 162.664 368.299 161.686 369.24 161.049C370.959 159.883 374.386 157.212 376.079 155.718C376.403 155.431 378.537 153.557 380.821 151.553C385.459 147.483 386.853 145.992 389.288 142.5C391.957 138.674 391.257 137.145 387.755 138.411L388.034 138.218L387.305 138.582C386.806 138.782 386.258 139.033 385.661 139.335C384.617 139.863 383.605 140.395 382.885 140.791L363.167 150.641C363.146 150.64 363.127 150.638 363.11 150.635C363.102 150.634 363.093 150.632 363.086 150.63C363.065 150.624 363.049 150.615 363.038 150.604C362.918 150.484 363.52 150.186 364.339 149.782C364.57 149.668 364.819 149.545 365.073 149.415C366.228 148.827 375.667 143.946 375.869 143.619C376.071 143.293 366.194 147.83 364.363 148.847C350.146 156.754 336.506 165.036 336.83 165.36C336.929 165.459 342.347 162.221 344.292 161.058C344.543 160.908 344.736 160.793 344.852 160.724C349.362 158.042 350.567 157.426 349.831 158.176C349.605 158.406 348.719 158.957 347.495 159.719L347.495 159.719L347.493 159.721L347.492 159.721L347.491 159.721C346.383 160.411 344.997 161.274 343.573 162.226C340.575 164.232 339.386 164.979 338.265 165.622C337.783 165.898 337.538 166.029 337.326 166.14L337.326 166.141C337.045 166.289 336.825 166.406 336.195 166.789C335.089 167.462 331.922 169.166 328.822 170.802C326.559 171.997 323.923 173.231 321.401 174.304L302.523 180.733C302.33 180.759 302.127 180.785 301.913 180.811L322.799 172.652L297.661 181.431C297.482 181.483 297.305 181.537 297.126 181.591C296.456 181.796 295.763 182.007 294.858 182.143C293.274 182.745 289.628 183.195 285.795 183.668L285.794 183.668C284.556 183.821 283.298 183.976 282.084 184.139C272.351 185.45 264.992 184.163 261.425 180.525C257.153 176.167 256.286 172.477 257.677 164.569C259.065 156.681 263.109 147.437 269.296 138.015C270.225 136.601 271.042 135.239 271.613 134.178C272.109 133.391 273.797 131.169 275.106 129.587C275.577 129.074 276.085 128.493 276.603 127.872C281.386 122.143 290.623 113.494 297.313 108.479C298.871 107.312 300.247 106.191 301.202 105.331L305.053 102.876C305.257 102.757 305.464 102.627 305.67 102.489C305.731 102.447 305.793 102.406 305.854 102.365L307.529 101.297L307.495 101.302C308.021 100.974 308.451 100.719 308.661 100.616C309.091 100.406 310.733 99.4351 312.309 98.4583C315.015 96.7823 325.041 91.6943 331.787 88.5745C337.172 86.0831 354.088 80.2204 359.601 78.9338C360.092 78.8192 360.544 78.6951 360.926 78.5734C362.867 78.0678 365.023 77.5765 366.857 77.1586C367.35 77.0463 367.819 76.9393 368.255 76.8388C368.544 76.7772 368.831 76.7135 369.113 76.6486C375.614 75.1486 382.629 73.8745 388.261 73.1711C394.861 72.3469 398.681 72.9779 400.422 75.1798C402.138 77.3515 401.609 80.6151 398.968 84.1634C396.497 87.4827 390.984 92.8284 386.571 96.1841C381.145 100.31 368.958 108.277 365.185 110.166C363.189 111.165 361.322 112.252 361.035 112.581C360.213 113.525 352.171 116.859 347.338 118.258C341.774 119.869 338.107 119.954 337.323 118.488C335.96 115.945 338.983 110.828 346.975 102.147C350.597 98.2126 352.318 95.0605 350.844 95.0605C349.885 95.0605 345.497 97.1915 342.754 98.9899C337.581 102.382 328.443 113.782 327.626 117.863C327.214 119.921 328.661 123.071 332.03 127.453C333.508 129.376 334.718 131.071 334.718 131.221C334.718 131.371 335.598 132.31 336.672 133.308C338.248 134.772 339.03 135.118 340.711 135.096C342.597 135.07 344.915 134.589 346.258 134.05C347.585 133.622 349.978 132.824 352.069 131.818C357.994 129.278 369.1 122.634 380.578 114.581C382.441 113.274 386.738 110.397 390.127 108.189C393.516 105.979 397.854 103.151 399.768 101.902C408.227 96.3803 414.638 89.6481 417.912 82.8461C421.274 75.8624 420.973 74.5212 414.646 68.2846C412.749 66.4147 410.731 64.604 409.082 63.2465C407.493 61.816 404.359 59.5912 401.955 58.4806C400.256 57.6385 398.162 56.8925 396.376 56.5696C392.435 55.8568 385.326 55.6512 381.077 56.1271ZM363.334 164.54L363.322 164.534L363.31 164.551L363.334 164.54ZM320.759 75.1046C320.956 75.037 321.152 74.9696 321.348 74.9025C321.127 74.9926 320.925 75.0617 320.759 75.1046ZM548.903 112.268C546.616 113.531 537.238 120.977 532.748 125.093C527.947 129.494 516.958 139.472 512.389 143.578C510.258 145.492 506.061 149.417 503.062 152.299C500.063 155.182 497.425 157.54 497.2 157.54C496.468 157.54 496.891 156.927 497.795 155.715C498.025 155.406 498.144 155.26 498.274 155.099C498.407 154.936 498.553 154.757 498.839 154.378C498.88 154.323 498.994 154.155 499.171 153.895L499.172 153.895C499.792 152.981 501.185 150.931 502.913 148.651C505.135 145.72 508.192 141.675 509.707 139.661C509.783 139.56 509.858 139.459 509.933 139.358C510.001 139.265 510.068 139.172 510.134 139.08L510.135 139.087L510.208 138.977C510.654 138.351 511.049 137.748 511.369 137.214L513.435 134.077C513.615 133.83 513.799 133.538 513.973 133.218C514.56 132.134 515.319 130.854 515.659 130.375C516.152 129.68 516.086 129.147 515.34 127.762C513.938 125.161 509.405 120.448 506.242 118.303C502.599 115.832 500.601 115.776 499.058 118.104C498.443 119.032 497.827 120.069 497.364 121.022C496.958 121.86 496.709 122.316 496.482 122.733L496.482 122.733C496.163 123.317 495.888 123.823 495.279 125.192C494.82 126.264 494.342 127.231 494.026 127.87C493.805 128.319 493.663 128.606 493.663 128.655C493.663 128.774 491.816 132.686 489.558 137.348C487.3 142.011 484.492 147.817 483.319 150.251C481.524 153.977 480.098 156.312 479.192 157.797L479.189 157.801C478.955 158.185 478.755 158.511 478.593 158.791C477.037 161.862 466.92 181.933 466.291 185.282C466.028 186.684 465.428 187.342 463.212 188.667C459.066 191.145 457.908 191.479 455.606 190.859C453.198 190.211 451.83 188.218 450.963 184.095C450.227 180.594 450.204 161.112 450.933 158.572C451.751 155.722 451.556 154.557 450.018 153.107C448.558 151.729 442.381 148.62 439.838 147.983C436.727 147.203 432.17 150.511 432.17 153.548C432.17 154.716 431.521 155.325 430.321 156.45C430.239 156.527 430.155 156.606 430.068 156.689C428.889 157.534 428.785 157.584 428.114 157.907L427.975 157.974L427.914 158.003C427.394 158.255 426.136 159.041 425.321 159.726C420.213 163.198 407.249 172.511 398.662 179.335C398.599 179.34 398.546 179.332 398.504 179.312L411.838 168.558L418.858 163.289L426.375 158.309L417.456 163.778L411.395 168.065L398.636 177.989C398.738 177.729 398.869 177.432 399.028 177.097C399.485 176.134 399.859 175.188 399.859 174.995C399.859 174.802 400.915 173.015 402.205 171.023C403.494 169.031 404.55 167.296 404.55 167.167C404.55 166.591 414.445 152.879 418.624 147.664C423.694 141.337 430.802 133.848 433.114 132.397C436.216 130.45 439.014 130.499 442.263 132.558C445.237 134.442 446.668 135.978 449.224 140.027C449.819 140.97 450.382 141.731 450.781 142.159C451.398 142.955 452.47 144.196 452.751 143.957C452.836 143.933 453.053 143.579 453.034 142.264C453.034 142.157 453.03 142.034 453.023 141.893L453.022 141.882C453.005 141.559 452.968 141.142 452.916 140.618C452.19 133.232 444.602 124.948 434.06 120.033C428.375 117.383 424.197 116.231 421.411 116.545C419.64 116.744 418.842 117.178 415.462 120.435C412.894 122.368 408.376 127.278 404.559 132.029C404.037 132.639 403.665 133.121 403.384 133.515C402.519 134.627 401.71 135.711 400.991 136.727C399.311 139.007 395.883 144.078 396.144 144.5C396.262 144.69 397.808 142.693 399.32 140.74C400.438 139.296 401.538 137.876 402.028 137.381C402.373 137.032 402.713 136.67 403.031 136.315L404.917 134.528C404.573 135.037 404.04 135.707 403.412 136.495L403.411 136.497L403.411 136.497L403.411 136.498C402.609 137.505 401.653 138.706 400.741 140.013C399.232 141.705 390.067 155.649 387.614 159.883C382.949 167.939 377.469 181.451 376.647 186.923C376.336 189 376.485 189.323 379.806 193.758C382.17 196.915 384.351 199.515 385.875 201.05C386.615 201.877 387.457 202.788 388.263 203.603C388.38 203.764 388.551 203.934 388.77 204.106C389.711 205.024 390.556 205.749 391.069 205.972C392.371 206.538 401.099 198.356 404.225 194.751C407.219 192.025 410.448 189.047 412.089 187.479C414.173 185.488 421.181 178.957 425.216 175.243C432.223 168.795 432.691 168.582 432.691 171.824C432.691 173.428 432.879 174.86 433.139 175.667C434.189 181.409 436.613 189.84 440.135 193.912C440.542 194.432 441.037 195 441.624 195.626C448.329 202.773 456.249 202.659 463.459 195.314L466.248 192.474L468.153 195.964C468.866 197.269 469.51 198.242 470.026 198.811C471.119 200.17 473 202.201 474.362 202.539C474.632 202.655 475.337 202.318 476.431 200.618C476.545 200.445 476.667 200.247 476.793 200.028C477.094 199.517 477.42 198.909 477.77 198.191C480.532 193.104 484.61 187.934 495.706 175.295C498.118 172.546 500.581 169.809 501.177 169.213C501.774 168.617 504.959 165.223 508.255 161.672C518.641 150.483 519.951 149.078 521.153 147.851C521.739 147.252 522.215 146.744 522.572 146.362L522.574 146.359L522.675 146.252C522.954 145.953 522.979 145.922 522.991 145.906C522.995 145.901 522.998 145.897 523.012 145.883C523.032 145.861 523.076 145.816 523.186 145.704C523.39 145.497 523.608 145.293 523.855 145.062L523.856 145.062L523.862 145.056L523.864 145.054L523.865 145.053L523.866 145.052C524.333 144.616 524.903 144.084 525.665 143.259C529.96 138.613 531.597 136.932 533.714 135.001C534.049 134.694 534.341 134.432 534.591 134.214C530.472 140.339 529.944 151.289 530.033 154.267C530.033 150.561 531.399 143.605 533.431 138.735C532.664 140.782 532.182 142.862 531.958 143.828L531.925 143.969C531.902 144.07 531.897 144.088 531.89 144.111C531.882 144.138 531.872 144.171 531.831 144.341C531.815 144.409 531.799 144.467 531.784 144.525C531.699 144.845 531.623 145.135 531.489 146.653C531.331 148.446 531.259 150.824 531.205 153.115C531.121 156.665 532.069 161.08 533.049 162.459C533.528 163.286 534.22 164.421 534.753 165.106C534.99 165.447 535.272 165.806 535.583 166.157C537.1 167.868 537.496 168.083 537.936 167.433C538.227 167.004 538.468 166.227 538.473 165.708C538.483 164.493 540.667 159.71 543.033 155.718C546.051 150.628 553.613 139.239 555.65 136.714C556.69 135.425 559.03 132.296 560.85 129.759C561.917 128.272 562.639 127.213 563.081 126.456C564.017 125.021 563.848 123.609 563.455 122.696C563.289 122.294 562.991 121.765 562.545 121.064C560.58 117.967 553.178 111.193 551.802 111.231C551.211 111.247 549.906 111.714 548.903 112.268Z" fill="#EC6814"/>
</svg>
